<svg id="visual" viewBox="0 0 1500 900" width="1500" height="900" xmlns="http://www.w3.org/2000/svg" xmlns:xlink="http://www.w3.org/1999/xlink" version="1.1"><path d="M0 864L65 864L65 873L130 873L130 758L196 758L196 835L261 835L261 815L326 815L326 658L391 658L391 756L457 756L457 835L522 835L522 690L587 690L587 719L652 719L652 850L717 850L717 695L783 695L783 775L848 775L848 766L913 766L913 877L978 877L978 722L1043 722L1043 863L1109 863L1109 695L1174 695L1174 764L1239 764L1239 774L1304 774L1304 811L1370 811L1370 806L1435 806L1435 723L1500 723L1500 779L1500 0L1500 0L1435 0L1435 0L1370 0L1370 0L1304 0L1304 0L1239 0L1239 0L1174 0L1174 0L1109 0L1109 0L1043 0L1043 0L978 0L978 0L913 0L913 0L848 0L848 0L783 0L783 0L717 0L717 0L652 0L652 0L587 0L587 0L522 0L522 0L457 0L457 0L391 0L391 0L326 0L326 0L261 0L261 0L196 0L196 0L130 0L130 0L65 0L65 0L0 0Z" fill="#0052cc"></path><path d="M0 669L65 669L65 674L130 674L130 580L196 580L196 634L261 634L261 743L326 743L326 725L391 725L391 649L457 649L457 574L522 574L522 728L587 728L587 573L652 573L652 649L717 649L717 568L783 568L783 789L848 789L848 717L913 717L913 584L978 584L978 730L1043 730L1043 757L1109 757L1109 683L1174 683L1174 656L1239 656L1239 774L1304 774L1304 766L1370 766L1370 697L1435 697L1435 623L1500 623L1500 659L1500 0L1500 0L1435 0L1435 0L1370 0L1370 0L1304 0L1304 0L1239 0L1239 0L1174 0L1174 0L1109 0L1109 0L1043 0L1043 0L978 0L978 0L913 0L913 0L848 0L848 0L783 0L783 0L717 0L717 0L652 0L652 0L587 0L587 0L522 0L522 0L457 0L457 0L391 0L391 0L326 0L326 0L261 0L261 0L196 0L196 0L130 0L130 0L65 0L65 0L0 0Z" fill="#005dd1"></path><path d="M0 705L65 705L65 670L130 670L130 550L196 550L196 584L261 584L261 711L326 711L326 662L391 662L391 617L457 617L457 518L522 518L522 519L587 519L587 529L652 529L652 742L717 742L717 706L783 706L783 635L848 635L848 573L913 573L913 616L978 616L978 600L1043 600L1043 714L1109 714L1109 511L1174 511L1174 747L1239 747L1239 551L1304 551L1304 523L1370 523L1370 540L1435 540L1435 674L1500 674L1500 605L1500 0L1500 0L1435 0L1435 0L1370 0L1370 0L1304 0L1304 0L1239 0L1239 0L1174 0L1174 0L1109 0L1109 0L1043 0L1043 0L978 0L978 0L913 0L913 0L848 0L848 0L783 0L783 0L717 0L717 0L652 0L652 0L587 0L587 0L522 0L522 0L457 0L457 0L391 0L391 0L326 0L326 0L261 0L261 0L196 0L196 0L130 0L130 0L65 0L65 0L0 0Z" fill="#0068d6"></path><path d="M0 519L65 519L65 594L130 594L130 472L196 472L196 476L261 476L261 664L326 664L326 606L391 606L391 591L457 591L457 491L522 491L522 555L587 555L587 522L652 522L652 480L717 480L717 561L783 561L783 627L848 627L848 677L913 677L913 602L978 602L978 626L1043 626L1043 471L1109 471L1109 617L1174 617L1174 631L1239 631L1239 471L1304 471L1304 534L1370 534L1370 515L1435 515L1435 492L1500 492L1500 585L1500 0L1500 0L1435 0L1435 0L1370 0L1370 0L1304 0L1304 0L1239 0L1239 0L1174 0L1174 0L1109 0L1109 0L1043 0L1043 0L978 0L978 0L913 0L913 0L848 0L848 0L783 0L783 0L717 0L717 0L652 0L652 0L587 0L587 0L522 0L522 0L457 0L457 0L391 0L391 0L326 0L326 0L261 0L261 0L196 0L196 0L130 0L130 0L65 0L65 0L0 0Z" fill="#0072da"></path><path d="M0 417L65 417L65 496L130 496L130 518L196 518L196 404L261 404L261 428L326 428L326 579L391 579L391 400L457 400L457 537L522 537L522 559L587 559L587 601L652 601L652 440L717 440L717 551L783 551L783 550L848 550L848 589L913 589L913 546L978 546L978 449L1043 449L1043 447L1109 447L1109 450L1174 450L1174 469L1239 469L1239 424L1304 424L1304 416L1370 416L1370 532L1435 532L1435 578L1500 578L1500 567L1500 0L1500 0L1435 0L1435 0L1370 0L1370 0L1304 0L1304 0L1239 0L1239 0L1174 0L1174 0L1109 0L1109 0L1043 0L1043 0L978 0L978 0L913 0L913 0L848 0L848 0L783 0L783 0L717 0L717 0L652 0L652 0L587 0L587 0L522 0L522 0L457 0L457 0L391 0L391 0L326 0L326 0L261 0L261 0L196 0L196 0L130 0L130 0L65 0L65 0L0 0Z" fill="#007cdd"></path><path d="M0 394L65 394L65 408L130 408L130 391L196 391L196 536L261 536L261 482L326 482L326 434L391 434L391 481L457 481L457 539L522 539L522 370L587 370L587 365L652 365L652 402L717 402L717 524L783 524L783 478L848 478L848 537L913 537L913 396L978 396L978 435L1043 435L1043 528L1109 528L1109 409L1174 409L1174 422L1239 422L1239 403L1304 403L1304 365L1370 365L1370 396L1435 396L1435 367L1500 367L1500 364L1500 0L1500 0L1435 0L1435 0L1370 0L1370 0L1304 0L1304 0L1239 0L1239 0L1174 0L1174 0L1109 0L1109 0L1043 0L1043 0L978 0L978 0L913 0L913 0L848 0L848 0L783 0L783 0L717 0L717 0L652 0L652 0L587 0L587 0L522 0L522 0L457 0L457 0L391 0L391 0L326 0L326 0L261 0L261 0L196 0L196 0L130 0L130 0L65 0L65 0L0 0Z" fill="#0086df"></path><path d="M0 461L65 461L65 439L130 439L130 427L196 427L196 460L261 460L261 375L326 375L326 351L391 351L391 471L457 471L457 445L522 445L522 417L587 417L587 428L652 428L652 438L717 438L717 464L783 464L783 387L848 387L848 346L913 346L913 338L978 338L978 398L1043 398L1043 291L1109 291L1109 389L1174 389L1174 384L1239 384L1239 375L1304 375L1304 461L1370 461L1370 297L1435 297L1435 362L1500 362L1500 446L1500 0L1500 0L1435 0L1435 0L1370 0L1370 0L1304 0L1304 0L1239 0L1239 0L1174 0L1174 0L1109 0L1109 0L1043 0L1043 0L978 0L978 0L913 0L913 0L848 0L848 0L783 0L783 0L717 0L717 0L652 0L652 0L587 0L587 0L522 0L522 0L457 0L457 0L391 0L391 0L326 0L326 0L261 0L261 0L196 0L196 0L130 0L130 0L65 0L65 0L0 0Z" fill="#0090e1"></path><path d="M0 359L65 359L65 316L130 316L130 330L196 330L196 298L261 298L261 307L326 307L326 404L391 404L391 404L457 404L457 337L522 337L522 281L587 281L587 233L652 233L652 386L717 386L717 314L783 314L783 291L848 291L848 299L913 299L913 253L978 253L978 288L1043 288L1043 257L1109 257L1109 350L1174 350L1174 232L1239 232L1239 311L1304 311L1304 370L1370 370L1370 300L1435 300L1435 299L1500 299L1500 386L1500 0L1500 0L1435 0L1435 0L1370 0L1370 0L1304 0L1304 0L1239 0L1239 0L1174 0L1174 0L1109 0L1109 0L1043 0L1043 0L978 0L978 0L913 0L913 0L848 0L848 0L783 0L783 0L717 0L717 0L652 0L652 0L587 0L587 0L522 0L522 0L457 0L457 0L391 0L391 0L326 0L326 0L261 0L261 0L196 0L196 0L130 0L130 0L65 0L65 0L0 0Z" fill="#0099e2"></path><path d="M0 313L65 313L65 296L130 296L130 209L196 209L196 176L261 176L261 196L326 196L326 297L391 297L391 182L457 182L457 275L522 275L522 217L587 217L587 254L652 254L652 251L717 251L717 222L783 222L783 294L848 294L848 179L913 179L913 276L978 276L978 253L1043 253L1043 183L1109 183L1109 259L1174 259L1174 221L1239 221L1239 187L1304 187L1304 325L1370 325L1370 317L1435 317L1435 228L1500 228L1500 238L1500 0L1500 0L1435 0L1435 0L1370 0L1370 0L1304 0L1304 0L1239 0L1239 0L1174 0L1174 0L1109 0L1109 0L1043 0L1043 0L978 0L978 0L913 0L913 0L848 0L848 0L783 0L783 0L717 0L717 0L652 0L652 0L587 0L587 0L522 0L522 0L457 0L457 0L391 0L391 0L326 0L326 0L261 0L261 0L196 0L196 0L130 0L130 0L65 0L65 0L0 0Z" fill="#00a1e1"></path><path d="M0 160L65 160L65 240L130 240L130 198L196 198L196 128L261 128L261 177L326 177L326 249L391 249L391 122L457 122L457 125L522 125L522 179L587 179L587 127L652 127L652 148L717 148L717 247L783 247L783 220L848 220L848 183L913 183L913 260L978 260L978 139L1043 139L1043 255L1109 255L1109 249L1174 249L1174 220L1239 220L1239 176L1304 176L1304 220L1370 220L1370 257L1435 257L1435 206L1500 206L1500 167L1500 0L1500 0L1435 0L1435 0L1370 0L1370 0L1304 0L1304 0L1239 0L1239 0L1174 0L1174 0L1109 0L1109 0L1043 0L1043 0L978 0L978 0L913 0L913 0L848 0L848 0L783 0L783 0L717 0L717 0L652 0L652 0L587 0L587 0L522 0L522 0L457 0L457 0L391 0L391 0L326 0L326 0L261 0L261 0L196 0L196 0L130 0L130 0L65 0L65 0L0 0Z" fill="#00a9df"></path><path d="M0 139L65 139L65 148L130 148L130 137L196 137L196 149L261 149L261 70L326 70L326 119L391 119L391 173L457 173L457 193L522 193L522 84L587 84L587 135L652 135L652 89L717 89L717 85L783 85L783 149L848 149L848 103L913 103L913 125L978 125L978 95L1043 95L1043 140L1109 140L1109 124L1174 124L1174 76L1239 76L1239 67L1304 67L1304 126L1370 126L1370 83L1435 83L1435 155L1500 155L1500 151L1500 0L1500 0L1435 0L1435 0L1370 0L1370 0L1304 0L1304 0L1239 0L1239 0L1174 0L1174 0L1109 0L1109 0L1043 0L1043 0L978 0L978 0L913 0L913 0L848 0L848 0L783 0L783 0L717 0L717 0L652 0L652 0L587 0L587 0L522 0L522 0L457 0L457 0L391 0L391 0L326 0L326 0L261 0L261 0L196 0L196 0L130 0L130 0L65 0L65 0L0 0Z" fill="#00b1dc"></path><path d="M0 71L65 71L65 46L130 46L130 107L196 107L196 31L261 31L261 99L326 99L326 88L391 88L391 11L457 11L457 110L522 110L522 83L587 83L587 66L652 66L652 112L717 112L717 83L783 83L783 16L848 16L848 120L913 120L913 45L978 45L978 24L1043 24L1043 99L1109 99L1109 21L1174 21L1174 74L1239 74L1239 36L1304 36L1304 81L1370 81L1370 108L1435 108L1435 75L1500 75L1500 68L1500 0L1500 0L1435 0L1435 0L1370 0L1370 0L1304 0L1304 0L1239 0L1239 0L1174 0L1174 0L1109 0L1109 0L1043 0L1043 0L978 0L978 0L913 0L913 0L848 0L848 0L783 0L783 0L717 0L717 0L652 0L652 0L587 0L587 0L522 0L522 0L457 0L457 0L391 0L391 0L326 0L326 0L261 0L261 0L196 0L196 0L130 0L130 0L65 0L65 0L0 0Z" fill="#00b8d9"></path></svg>