<svg id="visual" viewBox="0 0 1500 900" width="1500" height="900" xmlns="http://www.w3.org/2000/svg" xmlns:xlink="http://www.w3.org/1999/xlink" version="1.1"><path d="M0 180L65 180L65 454L130 454L130 95L196 95L196 423L261 423L261 194L326 194L326 478L391 478L391 186L457 186L457 221L522 221L522 122L587 122L587 206L652 206L652 450L717 450L717 368L783 368L783 182L848 182L848 94L913 94L913 218L978 218L978 466L1043 466L1043 376L1109 376L1109 68L1174 68L1174 114L1239 114L1239 107L1304 107L1304 132L1370 132L1370 286L1435 286L1435 296L1500 296L1500 92L1500 901L1500 901L1435 901L1435 901L1370 901L1370 901L1304 901L1304 901L1239 901L1239 901L1174 901L1174 901L1109 901L1109 901L1043 901L1043 901L978 901L978 901L913 901L913 901L848 901L848 901L783 901L783 901L717 901L717 901L652 901L652 901L587 901L587 901L522 901L522 901L457 901L457 901L391 901L391 901L326 901L326 901L261 901L261 901L196 901L196 901L130 901L130 901L65 901L65 901L0 901Z" fill="#00b8d9"></path><path d="M0 204L65 204L65 313L130 313L130 286L196 286L196 250L261 250L261 506L326 506L326 214L391 214L391 150L457 150L457 155L522 155L522 359L587 359L587 191L652 191L652 223L717 223L717 259L783 259L783 408L848 408L848 330L913 330L913 404L978 404L978 356L1043 356L1043 160L1109 160L1109 489L1174 489L1174 304L1239 304L1239 449L1304 449L1304 376L1370 376L1370 149L1435 149L1435 470L1500 470L1500 141L1500 901L1500 901L1435 901L1435 901L1370 901L1370 901L1304 901L1304 901L1239 901L1239 901L1174 901L1174 901L1109 901L1109 901L1043 901L1043 901L978 901L978 901L913 901L913 901L848 901L848 901L783 901L783 901L717 901L717 901L652 901L652 901L587 901L587 901L522 901L522 901L457 901L457 901L391 901L391 901L326 901L326 901L261 901L261 901L196 901L196 901L130 901L130 901L65 901L65 901L0 901Z" fill="#00afdd"></path><path d="M0 274L65 274L65 462L130 462L130 405L196 405L196 485L261 485L261 301L326 301L326 262L391 262L391 488L457 488L457 314L522 314L522 542L587 542L587 272L652 272L652 295L717 295L717 443L783 443L783 377L848 377L848 493L913 493L913 530L978 530L978 543L1043 543L1043 431L1109 431L1109 397L1174 397L1174 448L1239 448L1239 435L1304 435L1304 261L1370 261L1370 364L1435 364L1435 448L1500 448L1500 236L1500 901L1500 901L1435 901L1435 901L1370 901L1370 901L1304 901L1304 901L1239 901L1239 901L1174 901L1174 901L1109 901L1109 901L1043 901L1043 901L978 901L978 901L913 901L913 901L848 901L848 901L783 901L783 901L717 901L717 901L652 901L652 901L587 901L587 901L522 901L522 901L457 901L457 901L391 901L391 901L326 901L326 901L261 901L261 901L196 901L196 901L130 901L130 901L65 901L65 901L0 901Z" fill="#00a6e0"></path><path d="M0 560L65 560L65 501L130 501L130 582L196 582L196 602L261 602L261 582L326 582L326 356L391 356L391 347L457 347L457 370L522 370L522 492L587 492L587 399L652 399L652 388L717 388L717 571L783 571L783 596L848 596L848 583L913 583L913 466L978 466L978 299L1043 299L1043 584L1109 584L1109 604L1174 604L1174 472L1239 472L1239 604L1304 604L1304 335L1370 335L1370 311L1435 311L1435 374L1500 374L1500 308L1500 901L1500 901L1435 901L1435 901L1370 901L1370 901L1304 901L1304 901L1239 901L1239 901L1174 901L1174 901L1109 901L1109 901L1043 901L1043 901L978 901L978 901L913 901L913 901L848 901L848 901L783 901L783 901L717 901L717 901L652 901L652 901L587 901L587 901L522 901L522 901L457 901L457 901L391 901L391 901L326 901L326 901L261 901L261 901L196 901L196 901L130 901L130 901L65 901L65 901L0 901Z" fill="#009ce2"></path><path d="M0 403L65 403L65 533L130 533L130 601L196 601L196 471L261 471L261 405L326 405L326 472L391 472L391 480L457 480L457 366L522 366L522 365L587 365L587 363L652 363L652 644L717 644L717 434L783 434L783 617L848 617L848 598L913 598L913 424L978 424L978 379L1043 379L1043 571L1109 571L1109 375L1174 375L1174 414L1239 414L1239 462L1304 462L1304 495L1370 495L1370 478L1435 478L1435 421L1500 421L1500 595L1500 901L1500 901L1435 901L1435 901L1370 901L1370 901L1304 901L1304 901L1239 901L1239 901L1174 901L1174 901L1109 901L1109 901L1043 901L1043 901L978 901L978 901L913 901L913 901L848 901L848 901L783 901L783 901L717 901L717 901L652 901L652 901L587 901L587 901L522 901L522 901L457 901L457 901L391 901L391 901L326 901L326 901L261 901L261 901L196 901L196 901L130 901L130 901L65 901L65 901L0 901Z" fill="#0091e1"></path><path d="M0 582L65 582L65 698L130 698L130 615L196 615L196 664L261 664L261 605L326 605L326 574L391 574L391 589L457 589L457 684L522 684L522 681L587 681L587 562L652 562L652 668L717 668L717 574L783 574L783 597L848 597L848 700L913 700L913 600L978 600L978 582L1043 582L1043 536L1109 536L1109 664L1174 664L1174 528L1239 528L1239 620L1304 620L1304 628L1370 628L1370 620L1435 620L1435 552L1500 552L1500 532L1500 901L1500 901L1435 901L1435 901L1370 901L1370 901L1304 901L1304 901L1239 901L1239 901L1174 901L1174 901L1109 901L1109 901L1043 901L1043 901L978 901L978 901L913 901L913 901L848 901L848 901L783 901L783 901L717 901L717 901L652 901L652 901L587 901L587 901L522 901L522 901L457 901L457 901L391 901L391 901L326 901L326 901L261 901L261 901L196 901L196 901L130 901L130 901L65 901L65 901L0 901Z" fill="#0085df"></path><path d="M0 655L65 655L65 574L130 574L130 711L196 711L196 521L261 521L261 650L326 650L326 597L391 597L391 629L457 629L457 636L522 636L522 582L587 582L587 556L652 556L652 581L717 581L717 586L783 586L783 716L848 716L848 527L913 527L913 525L978 525L978 559L1043 559L1043 712L1109 712L1109 736L1174 736L1174 689L1239 689L1239 575L1304 575L1304 669L1370 669L1370 673L1435 673L1435 631L1500 631L1500 620L1500 901L1500 901L1435 901L1435 901L1370 901L1370 901L1304 901L1304 901L1239 901L1239 901L1174 901L1174 901L1109 901L1109 901L1043 901L1043 901L978 901L978 901L913 901L913 901L848 901L848 901L783 901L783 901L717 901L717 901L652 901L652 901L587 901L587 901L522 901L522 901L457 901L457 901L391 901L391 901L326 901L326 901L261 901L261 901L196 901L196 901L130 901L130 901L65 901L65 901L0 901Z" fill="#0079dc"></path><path d="M0 774L65 774L65 663L130 663L130 631L196 631L196 739L261 739L261 654L326 654L326 681L391 681L391 683L457 683L457 654L522 654L522 721L587 721L587 699L652 699L652 756L717 756L717 619L783 619L783 690L848 690L848 787L913 787L913 687L978 687L978 747L1043 747L1043 790L1109 790L1109 792L1174 792L1174 630L1239 630L1239 634L1304 634L1304 739L1370 739L1370 737L1435 737L1435 604L1500 604L1500 710L1500 901L1500 901L1435 901L1435 901L1370 901L1370 901L1304 901L1304 901L1239 901L1239 901L1174 901L1174 901L1109 901L1109 901L1043 901L1043 901L978 901L978 901L913 901L913 901L848 901L848 901L783 901L783 901L717 901L717 901L652 901L652 901L587 901L587 901L522 901L522 901L457 901L457 901L391 901L391 901L326 901L326 901L261 901L261 901L196 901L196 901L130 901L130 901L65 901L65 901L0 901Z" fill="#006dd8"></path><path d="M0 800L65 800L65 677L130 677L130 698L196 698L196 734L261 734L261 780L326 780L326 734L391 734L391 793L457 793L457 676L522 676L522 732L587 732L587 768L652 768L652 787L717 787L717 713L783 713L783 688L848 688L848 762L913 762L913 746L978 746L978 751L1043 751L1043 678L1109 678L1109 690L1174 690L1174 761L1239 761L1239 683L1304 683L1304 814L1370 814L1370 781L1435 781L1435 796L1500 796L1500 696L1500 901L1500 901L1435 901L1435 901L1370 901L1370 901L1304 901L1304 901L1239 901L1239 901L1174 901L1174 901L1109 901L1109 901L1043 901L1043 901L978 901L978 901L913 901L913 901L848 901L848 901L783 901L783 901L717 901L717 901L652 901L652 901L587 901L587 901L522 901L522 901L457 901L457 901L391 901L391 901L326 901L326 901L261 901L261 901L196 901L196 901L130 901L130 901L65 901L65 901L0 901Z" fill="#0060d3"></path><path d="M0 836L65 836L65 782L130 782L130 854L196 854L196 824L261 824L261 840L326 840L326 830L391 830L391 841L457 841L457 795L522 795L522 850L587 850L587 870L652 870L652 793L717 793L717 870L783 870L783 812L848 812L848 794L913 794L913 782L978 782L978 817L1043 817L1043 802L1109 802L1109 882L1174 882L1174 829L1239 829L1239 796L1304 796L1304 768L1370 768L1370 755L1435 755L1435 752L1500 752L1500 849L1500 901L1500 901L1435 901L1435 901L1370 901L1370 901L1304 901L1304 901L1239 901L1239 901L1174 901L1174 901L1109 901L1109 901L1043 901L1043 901L978 901L978 901L913 901L913 901L848 901L848 901L783 901L783 901L717 901L717 901L652 901L652 901L587 901L587 901L522 901L522 901L457 901L457 901L391 901L391 901L326 901L326 901L261 901L261 901L196 901L196 901L130 901L130 901L65 901L65 901L0 901Z" fill="#0052cc"></path></svg>