<svg id="visual" viewBox="0 0 960 540" width="960" height="540" xmlns="http://www.w3.org/2000/svg" xmlns:xlink="http://www.w3.org/1999/xlink" version="1.1"><rect x="0" y="0" width="960" height="540" fill="#fff"></rect><defs><linearGradient id="grad1_0" x1="43.8%" y1="0%" x2="100%" y2="100%"><stop offset="14.444444444444446%" stop-color="#ffffff" stop-opacity="1"></stop><stop offset="85.55555555555554%" stop-color="#ffffff" stop-opacity="1"></stop></linearGradient></defs><defs><linearGradient id="grad2_0" x1="0%" y1="0%" x2="56.3%" y2="100%"><stop offset="14.444444444444446%" stop-color="#ffffff" stop-opacity="1"></stop><stop offset="85.55555555555554%" stop-color="#ffffff" stop-opacity="1"></stop></linearGradient></defs><g transform="translate(960, 0)"><path d="M0 540C-94.8 526.1 -189.6 512.2 -270 467.7C-350.4 423.1 -416.4 348 -459 265C-501.6 182 -520.8 91 -540 0L0 0Z" fill="#6ba8d5"></path></g><g transform="translate(0, 540)"><path d="M0 -540C95.4 -526.4 190.8 -512.8 270 -467.7C349.2 -422.5 412.4 -345.7 454.7 -262.5C497 -179.3 518.5 -89.6 540 0L0 0Z" fill="#6ba8d5"></path></g></svg>