<svg id="visual" viewBox="0 0 1500 900" width="1500" height="900" xmlns="http://www.w3.org/2000/svg" xmlns:xlink="http://www.w3.org/1999/xlink" version="1.1"><path d="M0 826L65 826L65 132L130 132L130 441L196 441L196 508L261 508L261 232L326 232L326 178L391 178L391 162L457 162L457 797L522 797L522 578L587 578L587 755L652 755L652 197L717 197L717 273L783 273L783 111L848 111L848 353L913 353L913 91L978 91L978 711L1043 711L1043 229L1109 229L1109 833L1174 833L1174 673L1239 673L1239 399L1304 399L1304 53L1370 53L1370 659L1435 659L1435 487L1500 487L1500 745L1500 0L1500 0L1435 0L1435 0L1370 0L1370 0L1304 0L1304 0L1239 0L1239 0L1174 0L1174 0L1109 0L1109 0L1043 0L1043 0L978 0L978 0L913 0L913 0L848 0L848 0L783 0L783 0L717 0L717 0L652 0L652 0L587 0L587 0L522 0L522 0L457 0L457 0L391 0L391 0L326 0L326 0L261 0L261 0L196 0L196 0L130 0L130 0L65 0L65 0L0 0Z" fill="#00b8d9"></path><path d="M0 339L65 339L65 663L130 663L130 314L196 314L196 532L261 532L261 541L326 541L326 617L391 617L391 247L457 247L457 413L522 413L522 660L587 660L587 135L652 135L652 51L717 51L717 612L783 612L783 407L848 407L848 738L913 738L913 231L978 231L978 269L1043 269L1043 147L1109 147L1109 489L1174 489L1174 754L1239 754L1239 622L1304 622L1304 422L1370 422L1370 430L1435 430L1435 390L1500 390L1500 573L1500 0L1500 0L1435 0L1435 0L1370 0L1370 0L1304 0L1304 0L1239 0L1239 0L1174 0L1174 0L1109 0L1109 0L1043 0L1043 0L978 0L978 0L913 0L913 0L848 0L848 0L783 0L783 0L717 0L717 0L652 0L652 0L587 0L587 0L522 0L522 0L457 0L457 0L391 0L391 0L326 0L326 0L261 0L261 0L196 0L196 0L130 0L130 0L65 0L65 0L0 0Z" fill="#00a5e0"></path><path d="M0 532L65 532L65 295L130 295L130 686L196 686L196 242L261 242L261 122L326 122L326 156L391 156L391 274L457 274L457 696L522 696L522 546L587 546L587 210L652 210L652 55L717 55L717 563L783 563L783 624L848 624L848 388L913 388L913 362L978 362L978 179L1043 179L1043 301L1109 301L1109 660L1174 660L1174 204L1239 204L1239 534L1304 534L1304 96L1370 96L1370 209L1435 209L1435 137L1500 137L1500 682L1500 0L1500 0L1435 0L1435 0L1370 0L1370 0L1304 0L1304 0L1239 0L1239 0L1174 0L1174 0L1109 0L1109 0L1043 0L1043 0L978 0L978 0L913 0L913 0L848 0L848 0L783 0L783 0L717 0L717 0L652 0L652 0L587 0L587 0L522 0L522 0L457 0L457 0L391 0L391 0L326 0L326 0L261 0L261 0L196 0L196 0L130 0L130 0L65 0L65 0L0 0Z" fill="#0090e1"></path><path d="M0 324L65 324L65 355L130 355L130 342L196 342L196 609L261 609L261 438L326 438L326 456L391 456L391 540L457 540L457 79L522 79L522 379L587 379L587 458L652 458L652 477L717 477L717 572L783 572L783 310L848 310L848 443L913 443L913 80L978 80L978 85L1043 85L1043 655L1109 655L1109 640L1174 640L1174 608L1239 608L1239 144L1304 144L1304 592L1370 592L1370 235L1435 235L1435 424L1500 424L1500 495L1500 0L1500 0L1435 0L1435 0L1370 0L1370 0L1304 0L1304 0L1239 0L1239 0L1174 0L1174 0L1109 0L1109 0L1043 0L1043 0L978 0L978 0L913 0L913 0L848 0L848 0L783 0L783 0L717 0L717 0L652 0L652 0L587 0L587 0L522 0L522 0L457 0L457 0L391 0L391 0L326 0L326 0L261 0L261 0L196 0L196 0L130 0L130 0L65 0L65 0L0 0Z" fill="#0077db"></path><path d="M0 257L65 257L65 309L130 309L130 534L196 534L196 296L261 296L261 305L326 305L326 33L391 33L391 382L457 382L457 357L522 357L522 461L587 461L587 87L652 87L652 496L717 496L717 511L783 511L783 332L848 332L848 394L913 394L913 359L978 359L978 455L1043 455L1043 429L1109 429L1109 130L1174 130L1174 379L1239 379L1239 569L1304 569L1304 575L1370 575L1370 57L1435 57L1435 239L1500 239L1500 265L1500 0L1500 0L1435 0L1435 0L1370 0L1370 0L1304 0L1304 0L1239 0L1239 0L1174 0L1174 0L1109 0L1109 0L1043 0L1043 0L978 0L978 0L913 0L913 0L848 0L848 0L783 0L783 0L717 0L717 0L652 0L652 0L587 0L587 0L522 0L522 0L457 0L457 0L391 0L391 0L326 0L326 0L261 0L261 0L196 0L196 0L130 0L130 0L65 0L65 0L0 0Z" fill="#005dd1"></path><path d="M0 354L65 354L65 409L130 409L130 447L196 447L196 463L261 463L261 73L326 73L326 169L391 169L391 470L457 470L457 122L522 122L522 390L587 390L587 405L652 405L652 279L717 279L717 163L783 163L783 417L848 417L848 403L913 403L913 190L978 190L978 306L1043 306L1043 165L1109 165L1109 217L1174 217L1174 260L1239 260L1239 128L1304 128L1304 98L1370 98L1370 158L1435 158L1435 291L1500 291L1500 394L1500 0L1500 0L1435 0L1435 0L1370 0L1370 0L1304 0L1304 0L1239 0L1239 0L1174 0L1174 0L1109 0L1109 0L1043 0L1043 0L978 0L978 0L913 0L913 0L848 0L848 0L783 0L783 0L717 0L717 0L652 0L652 0L587 0L587 0L522 0L522 0L457 0L457 0L391 0L391 0L326 0L326 0L261 0L261 0L196 0L196 0L130 0L130 0L65 0L65 0L0 0Z" fill="#0052cc"></path><path d="M0 384L65 384L65 365L130 365L130 30L196 30L196 431L261 431L261 153L326 153L326 267L391 267L391 332L457 332L457 49L522 49L522 49L587 49L587 263L652 263L652 174L717 174L717 332L783 332L783 266L848 266L848 170L913 170L913 405L978 405L978 412L1043 412L1043 149L1109 149L1109 38L1174 38L1174 327L1239 327L1239 235L1304 235L1304 98L1370 98L1370 375L1435 375L1435 334L1500 334L1500 345L1500 0L1500 0L1435 0L1435 0L1370 0L1370 0L1304 0L1304 0L1239 0L1239 0L1174 0L1174 0L1109 0L1109 0L1043 0L1043 0L978 0L978 0L913 0L913 0L848 0L848 0L783 0L783 0L717 0L717 0L652 0L652 0L587 0L587 0L522 0L522 0L457 0L457 0L391 0L391 0L326 0L326 0L261 0L261 0L196 0L196 0L130 0L130 0L65 0L65 0L0 0Z" fill="#0052cc"></path><path d="M0 268L65 268L65 174L130 174L130 355L196 355L196 250L261 250L261 326L326 326L326 28L391 28L391 89L457 89L457 342L522 342L522 322L587 322L587 97L652 97L652 189L717 189L717 34L783 34L783 323L848 323L848 213L913 213L913 306L978 306L978 258L1043 258L1043 225L1109 225L1109 34L1174 34L1174 91L1239 91L1239 31L1304 31L1304 343L1370 343L1370 76L1435 76L1435 48L1500 48L1500 297L1500 0L1500 0L1435 0L1435 0L1370 0L1370 0L1304 0L1304 0L1239 0L1239 0L1174 0L1174 0L1109 0L1109 0L1043 0L1043 0L978 0L978 0L913 0L913 0L848 0L848 0L783 0L783 0L717 0L717 0L652 0L652 0L587 0L587 0L522 0L522 0L457 0L457 0L391 0L391 0L326 0L326 0L261 0L261 0L196 0L196 0L130 0L130 0L65 0L65 0L0 0Z" fill="#005dd1"></path><path d="M0 213L65 213L65 256L130 256L130 214L196 214L196 241L261 241L261 191L326 191L326 243L391 243L391 131L457 131L457 158L522 158L522 258L587 258L587 74L652 74L652 206L717 206L717 63L783 63L783 134L848 134L848 88L913 88L913 214L978 214L978 256L1043 256L1043 77L1109 77L1109 227L1174 227L1174 243L1239 243L1239 168L1304 168L1304 33L1370 33L1370 163L1435 163L1435 300L1500 300L1500 254L1500 0L1500 0L1435 0L1435 0L1370 0L1370 0L1304 0L1304 0L1239 0L1239 0L1174 0L1174 0L1109 0L1109 0L1043 0L1043 0L978 0L978 0L913 0L913 0L848 0L848 0L783 0L783 0L717 0L717 0L652 0L652 0L587 0L587 0L522 0L522 0L457 0L457 0L391 0L391 0L326 0L326 0L261 0L261 0L196 0L196 0L130 0L130 0L65 0L65 0L0 0Z" fill="#0077db"></path><path d="M0 228L65 228L65 261L130 261L130 18L196 18L196 133L261 133L261 16L326 16L326 163L391 163L391 165L457 165L457 30L522 30L522 121L587 121L587 44L652 44L652 258L717 258L717 259L783 259L783 232L848 232L848 149L913 149L913 103L978 103L978 132L1043 132L1043 82L1109 82L1109 202L1174 202L1174 128L1239 128L1239 39L1304 39L1304 17L1370 17L1370 27L1435 27L1435 152L1500 152L1500 64L1500 0L1500 0L1435 0L1435 0L1370 0L1370 0L1304 0L1304 0L1239 0L1239 0L1174 0L1174 0L1109 0L1109 0L1043 0L1043 0L978 0L978 0L913 0L913 0L848 0L848 0L783 0L783 0L717 0L717 0L652 0L652 0L587 0L587 0L522 0L522 0L457 0L457 0L391 0L391 0L326 0L326 0L261 0L261 0L196 0L196 0L130 0L130 0L65 0L65 0L0 0Z" fill="#0090e1"></path><path d="M0 144L65 144L65 141L130 141L130 176L196 176L196 135L261 135L261 139L326 139L326 114L391 114L391 147L457 147L457 122L522 122L522 38L587 38L587 127L652 127L652 95L717 95L717 181L783 181L783 195L848 195L848 112L913 112L913 17L978 17L978 26L1043 26L1043 24L1109 24L1109 52L1174 52L1174 84L1239 84L1239 119L1304 119L1304 10L1370 10L1370 84L1435 84L1435 122L1500 122L1500 186L1500 0L1500 0L1435 0L1435 0L1370 0L1370 0L1304 0L1304 0L1239 0L1239 0L1174 0L1174 0L1109 0L1109 0L1043 0L1043 0L978 0L978 0L913 0L913 0L848 0L848 0L783 0L783 0L717 0L717 0L652 0L652 0L587 0L587 0L522 0L522 0L457 0L457 0L391 0L391 0L326 0L326 0L261 0L261 0L196 0L196 0L130 0L130 0L65 0L65 0L0 0Z" fill="#00a5e0"></path><path d="M0 28L65 28L65 63L130 63L130 36L196 36L196 125L261 125L261 110L326 110L326 76L391 76L391 33L457 33L457 111L522 111L522 112L587 112L587 68L652 68L652 119L717 119L717 45L783 45L783 126L848 126L848 116L913 116L913 47L978 47L978 60L1043 60L1043 88L1109 88L1109 107L1174 107L1174 126L1239 126L1239 63L1304 63L1304 51L1370 51L1370 70L1435 70L1435 126L1500 126L1500 99L1500 0L1500 0L1435 0L1435 0L1370 0L1370 0L1304 0L1304 0L1239 0L1239 0L1174 0L1174 0L1109 0L1109 0L1043 0L1043 0L978 0L978 0L913 0L913 0L848 0L848 0L783 0L783 0L717 0L717 0L652 0L652 0L587 0L587 0L522 0L522 0L457 0L457 0L391 0L391 0L326 0L326 0L261 0L261 0L196 0L196 0L130 0L130 0L65 0L65 0L0 0Z" fill="#00b8d9"></path></svg>