<svg id="visual" viewBox="0 0 1500 900" width="1500" height="900" xmlns="http://www.w3.org/2000/svg" xmlns:xlink="http://www.w3.org/1999/xlink" version="1.1"><path d="M0 718L65 718L65 444L130 444L130 803L196 803L196 475L261 475L261 704L326 704L326 420L391 420L391 712L457 712L457 677L522 677L522 776L587 776L587 692L652 692L652 448L717 448L717 530L783 530L783 716L848 716L848 804L913 804L913 680L978 680L978 432L1043 432L1043 522L1109 522L1109 830L1174 830L1174 784L1239 784L1239 791L1304 791L1304 766L1370 766L1370 612L1435 612L1435 602L1500 602L1500 806L1500 0L1500 0L1435 0L1435 0L1370 0L1370 0L1304 0L1304 0L1239 0L1239 0L1174 0L1174 0L1109 0L1109 0L1043 0L1043 0L978 0L978 0L913 0L913 0L848 0L848 0L783 0L783 0L717 0L717 0L652 0L652 0L587 0L587 0L522 0L522 0L457 0L457 0L391 0L391 0L326 0L326 0L261 0L261 0L196 0L196 0L130 0L130 0L65 0L65 0L0 0Z" fill="#00b8d9"></path><path d="M0 694L65 694L65 585L130 585L130 612L196 612L196 648L261 648L261 392L326 392L326 684L391 684L391 748L457 748L457 743L522 743L522 539L587 539L587 707L652 707L652 675L717 675L717 639L783 639L783 490L848 490L848 568L913 568L913 494L978 494L978 542L1043 542L1043 738L1109 738L1109 409L1174 409L1174 594L1239 594L1239 449L1304 449L1304 522L1370 522L1370 749L1435 749L1435 428L1500 428L1500 757L1500 0L1500 0L1435 0L1435 0L1370 0L1370 0L1304 0L1304 0L1239 0L1239 0L1174 0L1174 0L1109 0L1109 0L1043 0L1043 0L978 0L978 0L913 0L913 0L848 0L848 0L783 0L783 0L717 0L717 0L652 0L652 0L587 0L587 0L522 0L522 0L457 0L457 0L391 0L391 0L326 0L326 0L261 0L261 0L196 0L196 0L130 0L130 0L65 0L65 0L0 0Z" fill="#00afdd"></path><path d="M0 624L65 624L65 436L130 436L130 493L196 493L196 413L261 413L261 597L326 597L326 636L391 636L391 410L457 410L457 584L522 584L522 356L587 356L587 626L652 626L652 603L717 603L717 455L783 455L783 521L848 521L848 405L913 405L913 368L978 368L978 355L1043 355L1043 467L1109 467L1109 501L1174 501L1174 450L1239 450L1239 463L1304 463L1304 637L1370 637L1370 534L1435 534L1435 450L1500 450L1500 662L1500 0L1500 0L1435 0L1435 0L1370 0L1370 0L1304 0L1304 0L1239 0L1239 0L1174 0L1174 0L1109 0L1109 0L1043 0L1043 0L978 0L978 0L913 0L913 0L848 0L848 0L783 0L783 0L717 0L717 0L652 0L652 0L587 0L587 0L522 0L522 0L457 0L457 0L391 0L391 0L326 0L326 0L261 0L261 0L196 0L196 0L130 0L130 0L65 0L65 0L0 0Z" fill="#00a6e0"></path><path d="M0 338L65 338L65 397L130 397L130 316L196 316L196 296L261 296L261 316L326 316L326 542L391 542L391 551L457 551L457 528L522 528L522 406L587 406L587 499L652 499L652 510L717 510L717 327L783 327L783 302L848 302L848 315L913 315L913 432L978 432L978 599L1043 599L1043 314L1109 314L1109 294L1174 294L1174 426L1239 426L1239 294L1304 294L1304 563L1370 563L1370 587L1435 587L1435 524L1500 524L1500 590L1500 0L1500 0L1435 0L1435 0L1370 0L1370 0L1304 0L1304 0L1239 0L1239 0L1174 0L1174 0L1109 0L1109 0L1043 0L1043 0L978 0L978 0L913 0L913 0L848 0L848 0L783 0L783 0L717 0L717 0L652 0L652 0L587 0L587 0L522 0L522 0L457 0L457 0L391 0L391 0L326 0L326 0L261 0L261 0L196 0L196 0L130 0L130 0L65 0L65 0L0 0Z" fill="#009ce2"></path><path d="M0 495L65 495L65 365L130 365L130 297L196 297L196 427L261 427L261 493L326 493L326 426L391 426L391 418L457 418L457 532L522 532L522 533L587 533L587 535L652 535L652 254L717 254L717 464L783 464L783 281L848 281L848 300L913 300L913 474L978 474L978 519L1043 519L1043 327L1109 327L1109 523L1174 523L1174 484L1239 484L1239 436L1304 436L1304 403L1370 403L1370 420L1435 420L1435 477L1500 477L1500 303L1500 0L1500 0L1435 0L1435 0L1370 0L1370 0L1304 0L1304 0L1239 0L1239 0L1174 0L1174 0L1109 0L1109 0L1043 0L1043 0L978 0L978 0L913 0L913 0L848 0L848 0L783 0L783 0L717 0L717 0L652 0L652 0L587 0L587 0L522 0L522 0L457 0L457 0L391 0L391 0L326 0L326 0L261 0L261 0L196 0L196 0L130 0L130 0L65 0L65 0L0 0Z" fill="#0091e1"></path><path d="M0 316L65 316L65 200L130 200L130 283L196 283L196 234L261 234L261 293L326 293L326 324L391 324L391 309L457 309L457 214L522 214L522 217L587 217L587 336L652 336L652 230L717 230L717 324L783 324L783 301L848 301L848 198L913 198L913 298L978 298L978 316L1043 316L1043 362L1109 362L1109 234L1174 234L1174 370L1239 370L1239 278L1304 278L1304 270L1370 270L1370 278L1435 278L1435 346L1500 346L1500 366L1500 0L1500 0L1435 0L1435 0L1370 0L1370 0L1304 0L1304 0L1239 0L1239 0L1174 0L1174 0L1109 0L1109 0L1043 0L1043 0L978 0L978 0L913 0L913 0L848 0L848 0L783 0L783 0L717 0L717 0L652 0L652 0L587 0L587 0L522 0L522 0L457 0L457 0L391 0L391 0L326 0L326 0L261 0L261 0L196 0L196 0L130 0L130 0L65 0L65 0L0 0Z" fill="#0085df"></path><path d="M0 243L65 243L65 324L130 324L130 187L196 187L196 377L261 377L261 248L326 248L326 301L391 301L391 269L457 269L457 262L522 262L522 316L587 316L587 342L652 342L652 317L717 317L717 312L783 312L783 182L848 182L848 371L913 371L913 373L978 373L978 339L1043 339L1043 186L1109 186L1109 162L1174 162L1174 209L1239 209L1239 323L1304 323L1304 229L1370 229L1370 225L1435 225L1435 267L1500 267L1500 278L1500 0L1500 0L1435 0L1435 0L1370 0L1370 0L1304 0L1304 0L1239 0L1239 0L1174 0L1174 0L1109 0L1109 0L1043 0L1043 0L978 0L978 0L913 0L913 0L848 0L848 0L783 0L783 0L717 0L717 0L652 0L652 0L587 0L587 0L522 0L522 0L457 0L457 0L391 0L391 0L326 0L326 0L261 0L261 0L196 0L196 0L130 0L130 0L65 0L65 0L0 0Z" fill="#0079dc"></path><path d="M0 124L65 124L65 235L130 235L130 267L196 267L196 159L261 159L261 244L326 244L326 217L391 217L391 215L457 215L457 244L522 244L522 177L587 177L587 199L652 199L652 142L717 142L717 279L783 279L783 208L848 208L848 111L913 111L913 211L978 211L978 151L1043 151L1043 108L1109 108L1109 106L1174 106L1174 268L1239 268L1239 264L1304 264L1304 159L1370 159L1370 161L1435 161L1435 294L1500 294L1500 188L1500 0L1500 0L1435 0L1435 0L1370 0L1370 0L1304 0L1304 0L1239 0L1239 0L1174 0L1174 0L1109 0L1109 0L1043 0L1043 0L978 0L978 0L913 0L913 0L848 0L848 0L783 0L783 0L717 0L717 0L652 0L652 0L587 0L587 0L522 0L522 0L457 0L457 0L391 0L391 0L326 0L326 0L261 0L261 0L196 0L196 0L130 0L130 0L65 0L65 0L0 0Z" fill="#006dd8"></path><path d="M0 98L65 98L65 221L130 221L130 200L196 200L196 164L261 164L261 118L326 118L326 164L391 164L391 105L457 105L457 222L522 222L522 166L587 166L587 130L652 130L652 111L717 111L717 185L783 185L783 210L848 210L848 136L913 136L913 152L978 152L978 147L1043 147L1043 220L1109 220L1109 208L1174 208L1174 137L1239 137L1239 215L1304 215L1304 84L1370 84L1370 117L1435 117L1435 102L1500 102L1500 202L1500 0L1500 0L1435 0L1435 0L1370 0L1370 0L1304 0L1304 0L1239 0L1239 0L1174 0L1174 0L1109 0L1109 0L1043 0L1043 0L978 0L978 0L913 0L913 0L848 0L848 0L783 0L783 0L717 0L717 0L652 0L652 0L587 0L587 0L522 0L522 0L457 0L457 0L391 0L391 0L326 0L326 0L261 0L261 0L196 0L196 0L130 0L130 0L65 0L65 0L0 0Z" fill="#0060d3"></path><path d="M0 62L65 62L65 116L130 116L130 44L196 44L196 74L261 74L261 58L326 58L326 68L391 68L391 57L457 57L457 103L522 103L522 48L587 48L587 28L652 28L652 105L717 105L717 28L783 28L783 86L848 86L848 104L913 104L913 116L978 116L978 81L1043 81L1043 96L1109 96L1109 16L1174 16L1174 69L1239 69L1239 102L1304 102L1304 130L1370 130L1370 143L1435 143L1435 146L1500 146L1500 49L1500 0L1500 0L1435 0L1435 0L1370 0L1370 0L1304 0L1304 0L1239 0L1239 0L1174 0L1174 0L1109 0L1109 0L1043 0L1043 0L978 0L978 0L913 0L913 0L848 0L848 0L783 0L783 0L717 0L717 0L652 0L652 0L587 0L587 0L522 0L522 0L457 0L457 0L391 0L391 0L326 0L326 0L261 0L261 0L196 0L196 0L130 0L130 0L65 0L65 0L0 0Z" fill="#0052cc"></path></svg>