<svg id="visual" viewBox="0 0 960 540" width="960" height="540" xmlns="http://www.w3.org/2000/svg" xmlns:xlink="http://www.w3.org/1999/xlink" version="1.1"><rect x="0" y="0" width="960" height="540" fill="#fff"></rect><defs><linearGradient id="grad1_0" x1="43.8%" y1="0%" x2="100%" y2="100%"><stop offset="14.444444444444446%" stop-color="#ffffff" stop-opacity="1"></stop><stop offset="85.55555555555554%" stop-color="#ffffff" stop-opacity="1"></stop></linearGradient></defs><defs><linearGradient id="grad2_0" x1="0%" y1="0%" x2="56.3%" y2="100%"><stop offset="14.444444444444446%" stop-color="#ffffff" stop-opacity="1"></stop><stop offset="85.55555555555554%" stop-color="#ffffff" stop-opacity="1"></stop></linearGradient></defs><g transform="translate(960, 0)"><path d="M0 378C-56.5 379.5 -113.1 381 -144.7 349.2C-176.2 317.5 -182.8 252.5 -216.4 216.4C-249.9 180.2 -310.4 172.9 -341.8 141.6C-373.3 110.3 -375.6 55.2 -378 0L0 0Z" fill="#0052cc"></path></g><g transform="translate(0, 540)"><path d="M0 -378C47.2 -363.4 94.5 -348.7 135.9 -328C177.2 -307.2 212.7 -280.4 250.3 -250.3C287.9 -220.2 327.6 -186.9 349.2 -144.7C370.9 -102.4 374.4 -51.2 378 0L0 0Z" fill="#0052cc"></path></g></svg>