<svg id="visual" viewBox="0 0 1500 900" width="1500" height="900" xmlns="http://www.w3.org/2000/svg" xmlns:xlink="http://www.w3.org/1999/xlink" version="1.1"><path d="M0 617L65 617L65 647L130 647L130 693L196 693L196 629L261 629L261 669L326 669L326 591L391 591L391 693L457 693L457 728L522 728L522 620L587 620L587 556L652 556L652 593L717 593L717 678L783 678L783 642L848 642L848 627L913 627L913 575L978 575L978 687L1043 687L1043 766L1109 766L1109 586L1174 586L1174 722L1239 722L1239 556L1304 556L1304 610L1370 610L1370 755L1435 755L1435 611L1500 611L1500 566L1500 901L1500 901L1435 901L1435 901L1370 901L1370 901L1304 901L1304 901L1239 901L1239 901L1174 901L1174 901L1109 901L1109 901L1043 901L1043 901L978 901L978 901L913 901L913 901L848 901L848 901L783 901L783 901L717 901L717 901L652 901L652 901L587 901L587 901L522 901L522 901L457 901L457 901L391 901L391 901L326 901L326 901L261 901L261 901L196 901L196 901L130 901L130 901L65 901L65 901L0 901Z" fill="#00b8d9"></path><path d="M0 787L65 787L65 663L130 663L130 715L196 715L196 649L261 649L261 787L326 787L326 668L391 668L391 727L457 727L457 707L522 707L522 709L587 709L587 693L652 693L652 727L717 727L717 672L783 672L783 641L848 641L848 666L913 666L913 712L978 712L978 726L1043 726L1043 733L1109 733L1109 762L1174 762L1174 752L1239 752L1239 744L1304 744L1304 732L1370 732L1370 755L1435 755L1435 768L1500 768L1500 686L1500 901L1500 901L1435 901L1435 901L1370 901L1370 901L1304 901L1304 901L1239 901L1239 901L1174 901L1174 901L1109 901L1109 901L1043 901L1043 901L978 901L978 901L913 901L913 901L848 901L848 901L783 901L783 901L717 901L717 901L652 901L652 901L587 901L587 901L522 901L522 901L457 901L457 901L391 901L391 901L326 901L326 901L261 901L261 901L196 901L196 901L130 901L130 901L65 901L65 901L0 901Z" fill="#00a3e1"></path><path d="M0 771L65 771L65 821L130 821L130 692L196 692L196 674L261 674L261 705L326 705L326 774L391 774L391 829L457 829L457 684L522 684L522 785L587 785L587 688L652 688L652 768L717 768L717 795L783 795L783 728L848 728L848 822L913 822L913 722L978 722L978 669L1043 669L1043 803L1109 803L1109 793L1174 793L1174 823L1239 823L1239 686L1304 686L1304 801L1370 801L1370 769L1435 769L1435 789L1500 789L1500 770L1500 901L1500 901L1435 901L1435 901L1370 901L1370 901L1304 901L1304 901L1239 901L1239 901L1174 901L1174 901L1109 901L1109 901L1043 901L1043 901L978 901L978 901L913 901L913 901L848 901L848 901L783 901L783 901L717 901L717 901L652 901L652 901L587 901L587 901L522 901L522 901L457 901L457 901L391 901L391 901L326 901L326 901L261 901L261 901L196 901L196 901L130 901L130 901L65 901L65 901L0 901Z" fill="#008be0"></path><path d="M0 744L65 744L65 763L130 763L130 742L196 742L196 816L261 816L261 831L326 831L326 831L391 831L391 796L457 796L457 809L522 809L522 753L587 753L587 735L652 735L652 786L717 786L717 745L783 745L783 742L848 742L848 802L913 802L913 741L978 741L978 783L1043 783L1043 777L1109 777L1109 734L1174 734L1174 853L1239 853L1239 861L1304 861L1304 800L1370 800L1370 736L1435 736L1435 854L1500 854L1500 827L1500 901L1500 901L1435 901L1435 901L1370 901L1370 901L1304 901L1304 901L1239 901L1239 901L1174 901L1174 901L1109 901L1109 901L1043 901L1043 901L978 901L978 901L913 901L913 901L848 901L848 901L783 901L783 901L717 901L717 901L652 901L652 901L587 901L587 901L522 901L522 901L457 901L457 901L391 901L391 901L326 901L326 901L261 901L261 901L196 901L196 901L130 901L130 901L65 901L65 901L0 901Z" fill="#0070d9"></path><path d="M0 880L65 880L65 808L130 808L130 888L196 888L196 880L261 880L261 880L326 880L326 863L391 863L391 809L457 809L457 873L522 873L522 831L587 831L587 873L652 873L652 812L717 812L717 864L783 864L783 870L848 870L848 812L913 812L913 794L978 794L978 821L1043 821L1043 860L1109 860L1109 880L1174 880L1174 850L1239 850L1239 788L1304 788L1304 835L1370 835L1370 870L1435 870L1435 840L1500 840L1500 889L1500 901L1500 901L1435 901L1435 901L1370 901L1370 901L1304 901L1304 901L1239 901L1239 901L1174 901L1174 901L1109 901L1109 901L1043 901L1043 901L978 901L978 901L913 901L913 901L848 901L848 901L783 901L783 901L717 901L717 901L652 901L652 901L587 901L587 901L522 901L522 901L457 901L457 901L391 901L391 901L326 901L326 901L261 901L261 901L196 901L196 901L130 901L130 901L65 901L65 901L0 901Z" fill="#0052cc"></path></svg>