<svg id="visual" viewBox="0 0 2200 1200" width="2200" height="1200" xmlns="http://www.w3.org/2000/svg" xmlns:xlink="http://www.w3.org/1999/xlink" version="1.1"><path d="M0 823L96 823L96 863L191 863L191 924L287 924L287 839L383 839L383 892L478 892L478 788L574 788L574 925L670 925L670 971L765 971L765 828L861 828L861 742L957 742L957 791L1052 791L1052 904L1148 904L1148 857L1243 857L1243 837L1339 837L1339 768L1435 768L1435 916L1530 916L1530 1022L1626 1022L1626 781L1722 781L1722 964L1817 964L1817 742L1913 742L1913 813L2009 813L2009 1006L2104 1006L2104 814L2200 814L2200 755L2200 1201L2200 1201L2104 1201L2104 1201L2009 1201L2009 1201L1913 1201L1913 1201L1817 1201L1817 1201L1722 1201L1722 1201L1626 1201L1626 1201L1530 1201L1530 1201L1435 1201L1435 1201L1339 1201L1339 1201L1243 1201L1243 1201L1148 1201L1148 1201L1052 1201L1052 1201L957 1201L957 1201L861 1201L861 1201L765 1201L765 1201L670 1201L670 1201L574 1201L574 1201L478 1201L478 1201L383 1201L383 1201L287 1201L287 1201L191 1201L191 1201L96 1201L96 1201L0 1201Z" fill="#00b8d9"></path><path d="M0 1050L96 1050L96 884L191 884L191 953L287 953L287 866L383 866L383 1049L478 1049L478 892L574 892L574 970L670 970L670 943L765 943L765 945L861 945L861 925L957 925L957 969L1052 969L1052 897L1148 897L1148 855L1243 855L1243 889L1339 889L1339 950L1435 950L1435 968L1530 968L1530 978L1626 978L1626 1016L1722 1016L1722 1003L1817 1003L1817 992L1913 992L1913 976L2009 976L2009 1006L2104 1006L2104 1025L2200 1025L2200 915L2200 1201L2200 1201L2104 1201L2104 1201L2009 1201L2009 1201L1913 1201L1913 1201L1817 1201L1817 1201L1722 1201L1722 1201L1626 1201L1626 1201L1530 1201L1530 1201L1435 1201L1435 1201L1339 1201L1339 1201L1243 1201L1243 1201L1148 1201L1148 1201L1052 1201L1052 1201L957 1201L957 1201L861 1201L861 1201L765 1201L765 1201L670 1201L670 1201L574 1201L574 1201L478 1201L478 1201L383 1201L383 1201L287 1201L287 1201L191 1201L191 1201L96 1201L96 1201L0 1201Z" fill="#00a3e1"></path><path d="M0 1029L96 1029L96 1094L191 1094L191 923L287 923L287 899L383 899L383 941L478 941L478 1032L574 1032L574 1106L670 1106L670 912L765 912L765 1047L861 1047L861 918L957 918L957 1025L1052 1025L1052 1061L1148 1061L1148 970L1243 970L1243 1096L1339 1096L1339 964L1435 964L1435 892L1530 892L1530 1071L1626 1071L1626 1058L1722 1058L1722 1097L1817 1097L1817 915L1913 915L1913 1069L2009 1069L2009 1025L2104 1025L2104 1052L2200 1052L2200 1027L2200 1201L2200 1201L2104 1201L2104 1201L2009 1201L2009 1201L1913 1201L1913 1201L1817 1201L1817 1201L1722 1201L1722 1201L1626 1201L1626 1201L1530 1201L1530 1201L1435 1201L1435 1201L1339 1201L1339 1201L1243 1201L1243 1201L1148 1201L1148 1201L1052 1201L1052 1201L957 1201L957 1201L861 1201L861 1201L765 1201L765 1201L670 1201L670 1201L574 1201L574 1201L478 1201L478 1201L383 1201L383 1201L287 1201L287 1201L191 1201L191 1201L96 1201L96 1201L0 1201Z" fill="#008be0"></path><path d="M0 992L96 992L96 1017L191 1017L191 990L287 990L287 1088L383 1088L383 1109L478 1109L478 1109L574 1109L574 1062L670 1062L670 1079L765 1079L765 1004L861 1004L861 981L957 981L957 1048L1052 1048L1052 994L1148 994L1148 990L1243 990L1243 1070L1339 1070L1339 989L1435 989L1435 1045L1530 1045L1530 1036L1626 1036L1626 979L1722 979L1722 1138L1817 1138L1817 1149L1913 1149L1913 1067L2009 1067L2009 982L2104 982L2104 1139L2200 1139L2200 1103L2200 1201L2200 1201L2104 1201L2104 1201L2009 1201L2009 1201L1913 1201L1913 1201L1817 1201L1817 1201L1722 1201L1722 1201L1626 1201L1626 1201L1530 1201L1530 1201L1435 1201L1435 1201L1339 1201L1339 1201L1243 1201L1243 1201L1148 1201L1148 1201L1052 1201L1052 1201L957 1201L957 1201L861 1201L861 1201L765 1201L765 1201L670 1201L670 1201L574 1201L574 1201L478 1201L478 1201L383 1201L383 1201L287 1201L287 1201L191 1201L191 1201L96 1201L96 1201L0 1201Z" fill="#0070d9"></path><path d="M0 1174L96 1174L96 1078L191 1078L191 1185L287 1185L287 1173L383 1173L383 1174L478 1174L478 1151L574 1151L574 1078L670 1078L670 1164L765 1164L765 1109L861 1109L861 1164L957 1164L957 1083L1052 1083L1052 1152L1148 1152L1148 1161L1243 1161L1243 1084L1339 1084L1339 1059L1435 1059L1435 1095L1530 1095L1530 1147L1626 1147L1626 1174L1722 1174L1722 1134L1817 1134L1817 1051L1913 1051L1913 1113L2009 1113L2009 1161L2104 1161L2104 1120L2200 1120L2200 1186L2200 1201L2200 1201L2104 1201L2104 1201L2009 1201L2009 1201L1913 1201L1913 1201L1817 1201L1817 1201L1722 1201L1722 1201L1626 1201L1626 1201L1530 1201L1530 1201L1435 1201L1435 1201L1339 1201L1339 1201L1243 1201L1243 1201L1148 1201L1148 1201L1052 1201L1052 1201L957 1201L957 1201L861 1201L861 1201L765 1201L765 1201L670 1201L670 1201L574 1201L574 1201L478 1201L478 1201L383 1201L383 1201L287 1201L287 1201L191 1201L191 1201L96 1201L96 1201L0 1201Z" fill="#0052cc"></path></svg>