<svg id="visual" viewBox="0 0 1500 900" width="1500" height="900" xmlns="http://www.w3.org/2000/svg" xmlns:xlink="http://www.w3.org/1999/xlink" version="1.1"><path d="M0 361L136 361L136 319L273 319L273 188L409 188L409 365L545 365L545 78L682 78L682 283L818 283L818 390L955 390L955 318L1091 318L1091 382L1227 382L1227 80L1364 80L1364 352L1500 352L1500 409L1500 901L1500 901L1364 901L1364 901L1227 901L1227 901L1091 901L1091 901L955 901L955 901L818 901L818 901L682 901L682 901L545 901L545 901L409 901L409 901L273 901L273 901L136 901L136 901L0 901Z" fill="#00b8d9"></path><path d="M0 392L136 392L136 535L273 535L273 460L409 460L409 404L545 404L545 457L682 457L682 489L818 489L818 329L955 329L955 435L1091 435L1091 157L1227 157L1227 393L1364 393L1364 292L1500 292L1500 348L1500 901L1500 901L1364 901L1364 901L1227 901L1227 901L1091 901L1091 901L955 901L955 901L818 901L818 901L682 901L682 901L545 901L545 901L409 901L409 901L273 901L273 901L136 901L136 901L0 901Z" fill="#00adde"></path><path d="M0 283L136 283L136 460L273 460L273 600L409 600L409 598L545 598L545 492L682 492L682 359L818 359L818 442L955 442L955 278L1091 278L1091 316L1227 316L1227 263L1364 263L1364 448L1500 448L1500 426L1500 901L1500 901L1364 901L1364 901L1227 901L1227 901L1091 901L1091 901L955 901L955 901L818 901L818 901L682 901L682 901L545 901L545 901L409 901L409 901L273 901L273 901L136 901L136 901L0 901Z" fill="#00a0e1"></path><path d="M0 365L136 365L136 451L273 451L273 429L409 429L409 487L545 487L545 362L682 362L682 357L818 357L818 346L955 346L955 418L1091 418L1091 610L1227 610L1227 344L1364 344L1364 354L1500 354L1500 414L1500 901L1500 901L1364 901L1364 901L1227 901L1227 901L1091 901L1091 901L955 901L955 901L818 901L818 901L682 901L682 901L545 901L545 901L409 901L409 901L273 901L273 901L136 901L136 901L0 901Z" fill="#0092e1"></path><path d="M0 463L136 463L136 577L273 577L273 587L409 587L409 454L545 454L545 612L682 612L682 547L818 547L818 552L955 552L955 584L1091 584L1091 575L1227 575L1227 541L1364 541L1364 657L1500 657L1500 595L1500 901L1500 901L1364 901L1364 901L1227 901L1227 901L1091 901L1091 901L955 901L955 901L818 901L818 901L682 901L682 901L545 901L545 901L409 901L409 901L273 901L273 901L136 901L136 901L0 901Z" fill="#0083de"></path><path d="M0 634L136 634L136 693L273 693L273 570L409 570L409 675L545 675L545 725L682 725L682 559L818 559L818 530L955 530L955 657L1091 657L1091 715L1227 715L1227 682L1364 682L1364 697L1500 697L1500 646L1500 901L1500 901L1364 901L1364 901L1227 901L1227 901L1091 901L1091 901L955 901L955 901L818 901L818 901L682 901L682 901L545 901L545 901L409 901L409 901L273 901L273 901L136 901L136 901L0 901Z" fill="#0074da"></path><path d="M0 823L136 823L136 724L273 724L273 771L409 771L409 684L545 684L545 784L682 784L682 778L818 778L818 774L955 774L955 802L1091 802L1091 705L1227 705L1227 654L1364 654L1364 725L1500 725L1500 753L1500 901L1500 901L1364 901L1364 901L1227 901L1227 901L1091 901L1091 901L955 901L955 901L818 901L818 901L682 901L682 901L545 901L545 901L409 901L409 901L273 901L273 901L136 901L136 901L0 901Z" fill="#0064d4"></path><path d="M0 839L136 839L136 770L273 770L273 795L409 795L409 782L545 782L545 854L682 854L682 867L818 867L818 747L955 747L955 760L1091 760L1091 770L1227 770L1227 768L1364 768L1364 847L1500 847L1500 772L1500 901L1500 901L1364 901L1364 901L1227 901L1227 901L1091 901L1091 901L955 901L955 901L818 901L818 901L682 901L682 901L545 901L545 901L409 901L409 901L273 901L273 901L136 901L136 901L0 901Z" fill="#0052cc"></path></svg>