<svg id="visual" viewBox="0 0 1500 900" width="1500" height="900" xmlns="http://www.w3.org/2000/svg" xmlns:xlink="http://www.w3.org/1999/xlink" version="1.1"><path d="M884 0L1225 0L1225 82L737 82L737 164L1035 164L1035 245L657 245L657 327L671 327L671 409L821 409L821 491L605 491L605 573L948 573L948 655L945 655L945 736L839 736L839 818L887 818L887 900L0 900L0 818L0 818L0 736L0 736L0 655L0 655L0 573L0 573L0 491L0 491L0 409L0 409L0 327L0 327L0 245L0 245L0 164L0 164L0 82L0 82L0 0L0 0Z" fill="#00b8d9"></path><path d="M447 0L630 0L630 82L402 82L402 164L880 164L880 245L823 245L823 327L461 327L461 409L422 409L422 491L509 491L509 573L651 573L651 655L686 655L686 736L763 736L763 818L597 818L597 900L0 900L0 818L0 818L0 736L0 736L0 655L0 655L0 573L0 573L0 491L0 491L0 409L0 409L0 327L0 327L0 245L0 245L0 164L0 164L0 82L0 82L0 0L0 0Z" fill="#008be0"></path><path d="M378 0L384 0L384 82L208 82L208 164L390 164L390 245L268 245L268 327L210 327L210 409L571 409L571 491L204 491L204 573L480 573L480 655L490 655L490 736L327 736L327 818L500 818L500 900L0 900L0 818L0 818L0 736L0 736L0 655L0 655L0 573L0 573L0 491L0 491L0 409L0 409L0 327L0 327L0 245L0 245L0 164L0 164L0 82L0 82L0 0L0 0Z" fill="#0052cc"></path></svg>