<svg id="visual" viewBox="0 0 960 540" width="960" height="540" xmlns="http://www.w3.org/2000/svg" xmlns:xlink="http://www.w3.org/1999/xlink" version="1.1"><rect x="0" y="0" width="960" height="540" fill="#fff"></rect><defs><linearGradient id="grad1_0" x1="43.8%" y1="0%" x2="100%" y2="100%"><stop offset="14.444444444444446%" stop-color="#ffffff" stop-opacity="1"></stop><stop offset="85.55555555555554%" stop-color="#ffffff" stop-opacity="1"></stop></linearGradient></defs><defs><linearGradient id="grad2_0" x1="0%" y1="0%" x2="56.3%" y2="100%"><stop offset="14.444444444444446%" stop-color="#ffffff" stop-opacity="1"></stop><stop offset="85.55555555555554%" stop-color="#ffffff" stop-opacity="1"></stop></linearGradient></defs><g transform="translate(960, 0)"><path d="M0 243C-40.3 233.2 -80.5 223.4 -118 204.4C-155.5 185.4 -190.1 157.1 -210.4 121.5C-230.8 85.9 -236.9 42.9 -243 0L0 0Z" fill="#6ba8d5"></path></g><g transform="translate(0, 540)"><path d="M0 -243C42.8 -236.8 85.7 -230.7 121.5 -210.4C157.3 -190.2 186.2 -155.9 205.2 -118.5C224.3 -81.1 233.7 -40.5 243 0L0 0Z" fill="#6ba8d5"></path></g></svg>