<svg id="visual" viewBox="0 0 1500 900" width="1500" height="900" xmlns="http://www.w3.org/2000/svg" xmlns:xlink="http://www.w3.org/1999/xlink" version="1.1"><path d="M605 900L534 900L534 818L316 818L316 736L611 736L611 655L133 655L133 573L475 573L475 491L652 491L652 409L533 409L533 327L639 327L639 245L136 245L136 164L589 164L589 82L684 82L684 0L1500 0L1500 82L1500 82L1500 164L1500 164L1500 245L1500 245L1500 327L1500 327L1500 409L1500 409L1500 491L1500 491L1500 573L1500 573L1500 655L1500 655L1500 736L1500 736L1500 818L1500 818L1500 900L1500 900Z" fill="#00b8d9"></path><path d="M656 900L894 900L894 818L769 818L769 736L675 736L675 655L765 655L765 573L818 573L818 491L552 491L552 409L728 409L728 327L264 327L264 245L658 245L658 164L489 164L489 82L582 82L582 0L1500 0L1500 82L1500 82L1500 164L1500 164L1500 245L1500 245L1500 327L1500 327L1500 409L1500 409L1500 491L1500 491L1500 573L1500 573L1500 655L1500 655L1500 736L1500 736L1500 818L1500 818L1500 900L1500 900Z" fill="#00adde"></path><path d="M475 900L769 900L769 818L1002 818L1002 736L1000 736L1000 655L823 655L823 573L602 573L602 491L740 491L740 409L466 409L466 327L530 327L530 245L441 245L441 164L749 164L749 82L713 82L713 0L1500 0L1500 82L1500 82L1500 164L1500 164L1500 245L1500 245L1500 327L1500 327L1500 409L1500 409L1500 491L1500 491L1500 573L1500 573L1500 655L1500 655L1500 736L1500 736L1500 818L1500 818L1500 900L1500 900Z" fill="#00a0e1"></path><path d="M610 900L754 900L754 818L718 818L718 736L815 736L815 655L607 655L607 573L598 573L598 491L579 491L579 409L699 409L699 327L1020 327L1020 245L576 245L576 164L593 164L593 82L692 82L692 0L1500 0L1500 82L1500 82L1500 164L1500 164L1500 245L1500 245L1500 327L1500 327L1500 409L1500 409L1500 491L1500 491L1500 573L1500 573L1500 655L1500 655L1500 736L1500 736L1500 818L1500 818L1500 900L1500 900Z" fill="#0092e1"></path><path d="M774 900L964 900L964 818L981 818L981 736L760 736L760 655L1022 655L1022 573L915 573L915 491L922 491L922 409L976 409L976 327L961 327L961 245L905 245L905 164L1097 164L1097 82L995 82L995 0L1500 0L1500 82L1500 82L1500 164L1500 164L1500 245L1500 245L1500 327L1500 327L1500 409L1500 409L1500 491L1500 491L1500 573L1500 573L1500 655L1500 655L1500 736L1500 736L1500 818L1500 818L1500 900L1500 900Z" fill="#0083de"></path><path d="M1060 900L1158 900L1158 818L953 818L953 736L1127 736L1127 655L1212 655L1212 573L934 573L934 491L887 491L887 409L1098 409L1098 327L1194 327L1194 245L1139 245L1139 164L1164 164L1164 82L1079 82L1079 0L1500 0L1500 82L1500 82L1500 164L1500 164L1500 245L1500 245L1500 327L1500 327L1500 409L1500 409L1500 491L1500 491L1500 573L1500 573L1500 655L1500 655L1500 736L1500 736L1500 818L1500 818L1500 900L1500 900Z" fill="#0074da"></path><path d="M1375 900L1210 900L1210 818L1288 818L1288 736L1143 736L1143 655L1309 655L1309 573L1300 573L1300 491L1293 491L1293 409L1339 409L1339 327L1178 327L1178 245L1093 245L1093 164L1210 164L1210 82L1257 82L1257 0L1500 0L1500 82L1500 82L1500 164L1500 164L1500 245L1500 245L1500 327L1500 327L1500 409L1500 409L1500 491L1500 491L1500 573L1500 573L1500 655L1500 655L1500 736L1500 736L1500 818L1500 818L1500 900L1500 900Z" fill="#0064d4"></path><path d="M1401 900L1286 900L1286 818L1328 818L1328 736L1305 736L1305 655L1427 655L1427 573L1448 573L1448 491L1247 491L1247 409L1270 409L1270 327L1286 327L1286 245L1282 245L1282 164L1414 164L1414 82L1289 82L1289 0L1500 0L1500 82L1500 82L1500 164L1500 164L1500 245L1500 245L1500 327L1500 327L1500 409L1500 409L1500 491L1500 491L1500 573L1500 573L1500 655L1500 655L1500 736L1500 736L1500 818L1500 818L1500 900L1500 900Z" fill="#0052cc"></path></svg>