<svg id="visual" viewBox="0 0 1500 900" width="1500" height="900" xmlns="http://www.w3.org/2000/svg" xmlns:xlink="http://www.w3.org/1999/xlink" version="1.1"><path d="M618 900L277 900L277 818L765 818L765 736L467 736L467 655L845 655L845 573L831 573L831 491L681 491L681 409L897 409L897 327L554 327L554 245L558 245L558 164L663 164L663 82L615 82L615 0L1500 0L1500 82L1500 82L1500 164L1500 164L1500 245L1500 245L1500 327L1500 327L1500 409L1500 409L1500 491L1500 491L1500 573L1500 573L1500 655L1500 655L1500 736L1500 736L1500 818L1500 818L1500 900L1500 900Z" fill="#9900ff"></path><path d="M1055 900L872 900L872 818L1100 818L1100 736L622 736L622 655L679 655L679 573L1041 573L1041 491L1080 491L1080 409L993 409L993 327L851 327L851 245L816 245L816 164L739 164L739 82L905 82L905 0L1500 0L1500 82L1500 82L1500 164L1500 164L1500 245L1500 245L1500 327L1500 327L1500 409L1500 409L1500 491L1500 491L1500 573L1500 573L1500 655L1500 655L1500 736L1500 736L1500 818L1500 818L1500 900L1500 900Z" fill="#7700c6"></path><path d="M1124 900L1118 900L1118 818L1294 818L1294 736L1112 736L1112 655L1234 655L1234 573L1292 573L1292 491L931 491L931 409L1298 409L1298 327L1022 327L1022 245L1012 245L1012 164L1175 164L1175 82L1002 82L1002 0L1500 0L1500 82L1500 82L1500 164L1500 164L1500 245L1500 245L1500 327L1500 327L1500 409L1500 409L1500 491L1500 491L1500 573L1500 573L1500 655L1500 655L1500 736L1500 736L1500 818L1500 818L1500 900L1500 900Z" fill="#560090"></path></svg>